<svg id="a" version="1.1" viewBox="0 0 128 128" xmlns="http://www.w3.org/2000/svg"><defs><linearGradient id="b" x1="51.38" x2="51.38" y1="39.65" y2="71.01" gradientTransform="matrix(.83469 .00087409 .0010198 .8347 10.901 11.368)" gradientUnits="userSpaceOnUse"><stop stop-color="#00aaba" offset="0"/><stop stop-color="#0a3bd4" offset="1"/></linearGradient><linearGradient id="c" x1="64" x2="64" y1="21.25" y2="106.75" gradientTransform="matrix(.83469 0 0 .83469 10.993 11.427)" gradientUnits="userSpaceOnUse"><stop stop-color="#00aaba" offset="0"/><stop stop-color="#0c19db" offset="1"/></linearGradient><linearGradient id="d" x1="99.5" x2="99.5" y1="77" y2="117" gradientTransform="matrix(.83469 0 0 .83469 10.993 11.427)" gradientUnits="userSpaceOnUse"><stop stop-color="#00aaba" offset="0"/><stop stop-color="#00a1bb" offset=".13"/><stop stop-color="#028bc0" offset=".33"/><stop stop-color="#0566c9" offset=".58"/><stop stop-color="#0933d4" offset=".86"/><stop stop-color="#0c19db" offset="1"/></linearGradient></defs><g stroke-width=".8347"><path d="m51.133 64.046-15.216-9.9913 6.2519-9.5322 15.216 9.9913zm20.792 6.7109-10.909-21.777-13.405 20.433z" fill="url(#b)"/><path d="m56.901 90.514h-19.14c-5.1 0-9.2401-4.1401-9.2401-9.2401v-32.854c0-5.1 4.1401-9.2401 9.2401-9.2401h53.304c5.1 0 9.2401 4.1401 9.2401 9.2401v13.414c0 2.7628 2.2453 5.0082 5.0082 5.0082s5.0082-2.2453 5.0082-5.0082v-13.414c0-10.634-8.6224-19.256-19.256-19.256h-53.304c-10.634 0-19.256 8.6224-19.256 19.256v32.854c0 10.634 8.6224 19.256 19.256 19.256h19.14c2.7628 0 5.0082-2.2453 5.0082-5.0082 0-2.7628-2.2453-5.0082-5.0082-5.0082z" fill="url(#c)"/><rect x="73.595" y="75.698" width="40.9" height="33.388" rx="6.0682" ry="6.0682" fill="url(#d)"/></g></svg>
